PathFileType	4	(x/y/z)	S08_P20_T19
DataRate	CameraRate	NumFrames	NumMarkers	Units	OrigDataRate	OrigDataStartFrame	OrigNumFrames
240	240	6	51	mm	240	50	394
Frame#	Time	Sternum			R.Acromium			L.Acromium			Top.Head			R.ASIS			L.ASIS			R.PSIS			L.PSIS			R.Great.Tro			L.Great.Tro			R.Iliac.Crest			L.Iliac.Crest			V.Sacral			R.Thigh.Upper.Post			R.Thigh.Lower.Ant			R.Thigh.Lower.Post			R.Thigh.Upper.Ant			R.Knee.Lat			R.Knee.Med			R.Shank.Upper.Post			R.Shank.Lower.Ant			R.Shank.Lower.Post			R.Shank.Upper.Ant			R.Ankle.Lat			R.Ankle.Med			R.Heel.Upper			R.Heel.Med			R.Heel.Lat			R.Toe.Lat			R.Toe.Med			R.Toe.Tip			L.Thigh.Upper.Post			L.Thigh.Lower.Ant			L.Thigh.Lower.Post			L.Thigh.Upper.Ant			L.Knee.Lat			L.Knee.Med			L.Shank.Upper.Post			L.Shank.Lower.Ant			L.Shank.Lower.Post			L.Shank.Upper.Ant			L.Ankle.Lat			L.Ankle.Med			L.Heel.Upper			L.Heel.Med			L.Heel.Lat			L.Toe.Lat			L.Toe.Med			L.Toe.Tip			Cervical.Spine			Back			
		X1	Y1	Z1	X2	Y2	Z2	X3	Y3	Z3	X4	Y4	Z4	X5	Y5	Z5	X6	Y6	Z6	X7	Y7	Z7	X8	Y8	Z8	X9	Y9	Z9	X10	Y10	Z10	X11	Y11	Z11	X12	Y12	Z12	X13	Y13	Z13	X14	Y14	Z14	X15	Y15	Z15	X16	Y16	Z16	X17	Y17	Z17	X18	Y18	Z18	X19	Y19	Z19	X20	Y20	Z20	X21	Y21	Z21	X22	Y22	Z22	X23	Y23	Z23	X24	Y24	Z24	X25	Y25	Z25	X26	Y26	Z26	X27	Y27	Z27	X28	Y28	Z28	X29	Y29	Z29	X30	Y30	Z30	X31	Y31	Z31	X32	Y32	Z32	X33	Y33	Z33	X34	Y34	Z34	X35	Y35	Z35	X36	Y36	Z36	X37	Y37	Z37	X38	Y38	Z38	X39	Y39	Z39	X40	Y40	Z40	X41	Y41	Z41	X42	Y42	Z42	X43	Y43	Z43	X44	Y44	Z44	X45	Y45	Z45	X46	Y46	Z46	X47	Y47	Z47	X48	Y48	Z48	X49	Y49	Z49	X50	Y50	Z50	X51	Y51	Z51	

50	0.20417	-1068.6	1226.6	299.45	-1179.5	1466.4	477.17	-1204.1	1492.8	141.36	-1175.5	1786.1	330.67	-1100.9	1015.2	412.15	-1101.9	1024.4	182.96	NaN	NaN	NaN	NaN	NaN	NaN	-1162.8	900.82	482.04	-1189.4	915.73	114.81	-1201.4	1080.9	461.97	-1199.1	1103.7	153.75	-1321.6	1000.2	291.59	-1127.5	700.83	471.45	-1024.8	625.85	454.22	-1096.7	616.29	456.53	-1051.4	716.38	467.83	-1039.7	525.87	450.61	-1051.6	523.13	315.11	-1200.4	434.62	456.34	-1204.1	345.61	434.63	-1256.5	380.4	446.87	-1149	398.49	442.65	-1382.1	275.92	417.98	-1346.9	256.79	341.66	-1436.8	290.26	366.47	-1444.5	264.88	339.12	-1455.3	273.75	398.85	-1366.6	120.37	453.3	-1333	117	338.18	-1284.7	75.332	387.83	-1176.1	699.64	138.16	-1075.9	625.01	160.34	-1144.4	615.82	157.65	-1103.1	707.28	134.63	-1114.7	520.64	179.61	-1110.5	524.84	303.78	-1178.5	342.92	182.4	-1116.3	253.86	208.77	-1188.5	269.12	202.52	-1114.6	326.79	189.34	-1178.2	98.844	222.64	-1154	105.67	308.3	-1229.4	75.176	273.28	-1216.5	41.155	303.47	-1221.2	48.714	239.9	-1045.8	40.066	207.99	-1026	48.777	323.08	-964.86	64.394	274.78	-1255.4	1525.1	305.63	-1310.5	1243.4	315.71
51	0.20833	-1063.4	1227.4	299.42	-1174.2	1467.1	477.04	-1198.7	1493.7	141.25	-1169.8	1786.8	330.53	-1095.9	1016.3	411.92	-1096.5	1025.1	182.76	NaN	NaN	NaN	NaN	NaN	NaN	-1157.4	901.96	481.77	-1184.8	916.39	114.66	-1196.4	1082	461.64	-1193.7	1104.3	153.43	-1316.4	1001	291.21	-1119.3	702.43	471.12	-1015.8	628.6	453.58	-1087.3	618.21	456.12	-1043.4	718.86	467.33	-1029.7	528.48	450.1	-1041.7	525.55	314.7	-1189.5	435.66	455.87	-1192.4	346.56	434.46	-1245.3	380.84	446.45	-1137.5	400.07	442.29	-1369.4	275.07	417.73	-1334.2	256.06	341.53	-1424.6	287.96	366.18	-1432.1	262.13	339.03	-1443	271.35	398.81	-1351	120.64	454.38	-1317.8	116.5	339.24	-1268.7	76.245	389.33	-1173.1	700.35	138.18	-1073.6	624.86	160.32	-1142	616.29	157.57	-1100	707.41	134.58	-1113.3	520.75	179.59	-1108.7	524.85	303.76	-1177.7	343.29	182.44	-1115.8	253.95	208.7	-1187.9	269.55	202.67	-1113.9	326.83	189.32	-1177.9	99.015	222.81	-1153.8	105.82	308.28	-1229.4	75.391	273.31	-1216.5	41.327	303.48	-1221.1	48.865	239.91	-1045.7	40.015	207.97	-1025.8	48.698	323.02	-964.72	64.093	274.77	-1250	1525.9	305.43	-1305.3	1244.3	315.34
52	0.2125	-1058.2	1228.3	299.4	-1169	1467.9	476.91	-1193.2	1494.6	141.14	-1164	1787.6	330.39	-1090.8	1017.3	411.7	-1091.1	1025.8	182.57	NaN	NaN	NaN	NaN	NaN	NaN	-1152.1	903.13	481.52	-1180.3	917.06	114.52	-1191.4	1083	461.33	-1188.3	1105	153.11	-1311.3	1001.9	290.87	-1111.3	704.05	470.82	-1006.9	631.37	452.91	-1078.1	620.17	455.74	-1035.5	721.35	466.83	-1019.9	531.09	449.55	-1032	528	314.27	-1178.7	436.59	455.37	-1180.6	347.41	434.31	-1234.1	381.11	446.02	-1126.1	401.59	441.94	-1356.7	273.89	417.51	-1321.4	255.07	341.42	-1412.3	285.28	365.96	-1419.5	259.02	338.99	-1430.5	268.54	398.84	-1335.1	120.68	455.38	-1302.4	115.82	340.24	-1252.4	77.065	390.71	-1170.1	701.06	138.19	-1071.2	624.73	160.31	-1139.7	616.76	157.49	-1096.9	707.54	134.54	-1111.9	520.88	179.59	-1106.8	524.86	303.75	-1176.8	343.65	182.49	-1115.3	254.05	208.64	-1187.3	269.99	202.8	-1113.3	326.89	189.32	-1177.6	99.2	223	-1153.6	105.98	308.27	-1229.4	75.611	273.35	-1216.5	41.501	303.5	-1221.1	49.02	239.93	-1045.6	39.967	207.95	-1025.6	48.59	322.97	-964.58	63.788	274.75	-1244.5	1526.7	305.24	-1300.2	1245.2	314.96
53	0.21667	-1053.1	1229.1	299.37	-1163.8	1468.8	476.78	-1187.8	1495.5	141.05	-1158.3	1788.4	330.27	-1085.7	1018.4	411.48	-1085.8	1026.5	182.38	NaN	NaN	NaN	NaN	NaN	NaN	-1146.7	904.33	481.31	-1175.8	917.71	114.38	-1186.3	1084.1	461.02	-1182.9	1105.7	152.79	-1306.1	1002.8	290.55	-1103.2	705.68	470.58	-998.12	634.15	452.23	-1069.1	622.14	455.38	-1027.7	723.84	466.32	-1010.2	533.7	448.98	-1022.4	530.47	313.83	-1168	437.4	454.83	-1168.9	348.15	434.2	-1222.9	381.21	445.6	-1114.8	403.05	441.61	-1343.8	272.37	417.33	-1308.4	253.81	341.34	-1399.8	282.24	365.8	-1406.9	255.57	339	-1417.8	265.34	398.93	-1318.9	120.48	456.3	-1286.7	114.99	341.18	-1235.8	77.798	391.98	-1167.1	701.77	138.19	-1068.8	624.62	160.32	-1137.3	617.23	157.4	-1093.8	707.68	134.51	-1110.5	521.01	179.59	-1105	524.88	303.75	-1176	344.02	182.55	-1114.8	254.15	208.6	-1186.6	270.45	202.9	-1112.7	326.98	189.32	-1177.3	99.396	223.19	-1153.4	106.15	308.28	-1229.4	75.833	273.39	-1216.4	41.676	303.52	-1221	49.179	239.96	-1045.5	39.922	207.94	-1025.4	48.451	322.94	-964.43	63.48	274.75	-1239.1	1527.5	305.06	-1295	1246.1	314.58
54	0.22083	-1047.9	1230	299.33	-1158.7	1469.6	476.63	-1182.3	1496.4	140.96	-1152.4	1789.1	330.15	-1080.7	1019.5	411.27	-1080.5	1027.1	182.18	NaN	NaN	NaN	NaN	NaN	NaN	-1141.3	905.54	481.12	-1171.4	918.34	114.26	-1181.3	1085.1	460.73	-1177.5	1106.3	152.48	-1301	1003.7	290.26	-1095.3	707.32	470.38	-989.48	636.92	451.54	-1060.1	624.12	455.06	-1020	726.31	465.82	-1000.6	536.3	448.38	-1013	532.96	313.39	-1157.4	438.07	454.27	-1157.1	348.79	434.11	-1211.7	381.15	445.18	-1103.6	404.44	441.29	-1330.8	270.55	417.19	-1295.3	252.31	341.28	-1387.2	278.86	365.7	-1394	251.78	339.05	-1404.9	261.75	399.07	-1302.5	120.05	457.13	-1270.7	114.01	342.06	-1218.9	78.452	393.13	-1164.1	702.47	138.19	-1066.4	624.52	160.35	-1134.9	617.71	157.32	-1090.6	707.83	134.49	-1109.1	521.14	179.59	-1103.2	524.91	303.76	-1175.1	344.39	182.61	-1114.3	254.26	208.57	-1185.9	270.91	202.97	-1112	327.08	189.34	-1177	99.602	223.38	-1153.3	106.33	308.31	-1229.4	76.053	273.43	-1216.4	41.848	303.54	-1220.9	49.339	239.99	-1045.5	39.879	207.94	-1025.3	48.279	322.92	-964.29	63.169	274.74	-1233.7	1528.3	304.87	-1289.8	1247	314.19
55	0.225	-1042.7	1230.9	299.29	-1153.5	1470.4	476.48	-1176.9	1497.4	140.87	-1146.6	1789.9	330.04	-1075.6	1020.6	411.06	-1075.3	1027.7	181.99	NaN	NaN	NaN	NaN	NaN	NaN	-1135.9	906.76	480.96	-1167	918.96	114.14	-1176.3	1086.2	460.45	-1172.2	1106.9	152.18	-1295.9	1004.6	290.01	-1087.5	708.96	470.23	-980.96	639.68	450.83	-1051.4	626.1	454.75	-1012.3	728.76	465.31	-991.25	538.87	447.76	-1003.7	535.45	312.93	-1146.9	438.61	453.68	-1145.4	349.32	434.06	-1200.5	380.93	444.77	-1092.4	405.74	441	-1317.7	268.42	417.09	-1282.1	250.57	341.24	-1374.4	275.14	365.67	-1381	247.69	339.15	-1391.8	257.79	399.27	-1285.8	119.4	457.89	-1254.5	112.91	342.88	-1201.9	79.032	394.15	-1161	703.18	138.17	-1064	624.43	160.39	-1132.5	618.17	157.23	-1087.4	707.98	134.49	-1107.6	521.28	179.6	-1101.5	524.94	303.78	-1174.2	344.75	182.68	-1113.8	254.38	208.56	-1185.2	271.38	203.01	-1111.4	327.19	189.37	-1176.7	99.817	223.56	-1153.1	106.52	308.35	-1229.4	76.268	273.48	-1216.4	42.014	303.56	-1220.8	49.501	240.02	-1045.4	39.839	207.94	-1025.2	48.074	322.92	-964.14	62.855	274.74	-1228.4	1529	304.69	-1284.6	1247.9	313.81
